PathFileType	4	(X/Y/Z)	./resultDataOpenSim/trcMotMarkerGrf/sub10/qtm-15-07.trc
DataRate	CameraRate	NumFrames	NumMarkers	Units	OrigDataRate	OrigDataStartFrame	OrigNumFrames
250.000000	250.000000	8	24	m	250.000000	131	520
Frame#	Time	L.Toe.Tip			R.Toe.Tip			L.Ankle.Lat			R.Ankle.Lat			L.Ankle.Med			R.Ankle.Med			L.Heel			R.Heel			L.Knee.Lat			R.Knee.Lat			L.Knee.Med			R.Knee.Med			L.Thigh.Upper			R.Thigh.Upper			L.ASIS			R.ASIS			V.Sacral			L.Acromium			R.Acromium			C7			L.Elbow			R.Elbow			L.Wrist.Lat			R.Wrist.Lat
		X1	Y1	Z1	X2	Y2	Z2	X3	Y3	Z3	X4	Y4	Z4	X5	Y5	Z5	X6	Y6	Z6	X7	Y7	Z7	X8	Y8	Z8	X9	Y9	Z9	X10	Y10	Z10	X11	Y11	Z11	X12	Y12	Z12	X13	Y13	Z13	X14	Y14	Z14	X15	Y15	Z15	X16	Y16	Z16	X17	Y17	Z17	X18	Y18	Z18	X19	Y19	Z19	X20	Y20	Z20	X21	Y21	Z21	X22	Y22	Z22	X23	Y23	Z23	X24	Y24	Z24

131	0.52	-0.2844182	0.084482634	-0.18714307	-0.7300017	0.039341274	-0.034716919	-0.41985144	0.077128132	-0.21207347	-0.8668434	0.053170239	0.0080791515	-0.41201254	0.10139399	-0.12950732	-0.85427221	0.082190603	-0.077205621	-0.47188353	0.031338731	-0.1666653	-0.92215649	0.02938457	-0.037501311	-0.47625459	0.46652327	-0.22189815	-0.77017298	0.445994	0.059579657	-0.46023229	0.4409168	-0.10293702	-0.76119656	0.44924225	-0.073624772	-0.62236352	0.82059118	-0.26792255	-0.70260992	0.8579242	0.10977131	-0.58831484	0.93556932	-0.1963612	-0.61800028	0.94443513	0.047255692	-0.80520483	0.94800626	-0.096125723	-0.67723126	1.4046734	-0.24375214	-0.70800364	1.403815	0.080107676	-0.77711359	1.4274624	-0.090309287	-0.78751836	1.0837936	-0.30110522	-0.69881411	1.0543772	0.16137945	-0.70271069	0.85902156	-0.34134855	-0.49403268	0.91531075	0.17778304
132	0.524	-0.26940438	0.087689506	-0.18441604	-0.73007569	0.039184678	-0.034728493	-0.4041937	0.077163961	-0.21182246	-0.86685161	0.053209961	0.007991043	-0.39812268	0.10171009	-0.12917227	-0.85428725	0.082076135	-0.077311266	-0.45596005	0.030118971	-0.16793909	-0.92219788	0.029431732	-0.03764259	-0.47007283	0.46498057	-0.22197764	-0.76798981	0.44499114	0.058266439	-0.45603057	0.43898924	-0.10290432	-0.7582134	0.44851072	-0.073435662	-0.61623643	0.81947943	-0.26780499	-0.69907468	0.85716937	0.10946692	-0.58237444	0.93451509	-0.19603333	-0.613731	0.94336766	0.047416674	-0.80079027	0.94724689	-0.096551605	-0.67197366	1.4033938	-0.24379507	-0.70276211	1.4025674	0.080119123	-0.77201071	1.4263013	-0.090318285	-0.78389346	1.0830434	-0.30100062	-0.69256557	1.0528901	0.16153623	-0.69967659	0.85815064	-0.3418981	-0.48596889	0.91620558	0.17717065
133	0.528	-0.25492273	0.091011491	-0.18162676	-0.73008371	0.039067741	-0.03466936	-0.38892502	0.077436641	-0.21162531	-0.86687831	0.053268649	0.0078860067	-0.38472155	0.10216784	-0.12896778	-0.85424658	0.08196995	-0.077426969	-0.44048717	0.029100066	-0.16962194	-0.92223786	0.029492334	-0.037790605	-0.46390696	0.46344324	-0.22205128	-0.76460594	0.44402443	0.057572226	-0.45192171	0.43695227	-0.10288733	-0.75513009	0.44776202	-0.073291883	-0.60992776	0.8183186	-0.26763346	-0.69552174	0.85639855	0.10914974	-0.57632999	0.93342093	-0.19568396	-0.60946429	0.94227282	0.047594471	-0.7954653	0.94596908	-0.097874976	-0.66667528	1.4020878	-0.24383011	-0.69751207	1.4012764	0.080129601	-0.76689719	1.4251104	-0.090360469	-0.78019728	1.0822923	-0.30100713	-0.68633105	1.0513561	0.16167256	-0.69659834	0.8572624	-0.34244806	-0.47796412	0.91706822	0.17651903
134	0.532	-0.24100508	0.094401187	-0.17879017	-0.73004203	0.039010476	-0.034557783	-0.37412967	0.077928292	-0.21149648	-0.86690956	0.053337897	0.0077729916	-0.37199926	0.10268758	-0.1289526	-0.85416259	0.081869874	-0.077551274	-0.42547226	0.028267282	-0.17148394	-0.9222769	0.029562335	-0.037939429	-0.45776288	0.46193089	-0.22212028	-0.76045487	0.44315614	0.057400469	-0.44787584	0.43483989	-0.10287504	-0.75203574	0.44701623	-0.073275653	-0.60353698	0.81710264	-0.26743869	-0.6919566	0.85560207	0.10883791	-0.57021623	0.9322872	-0.19532318	-0.60519135	0.94114362	0.047780378	-0.78901034	0.94374341	-0.10087358	-0.66151876	1.400757	-0.24389952	-0.69225519	1.399952	0.080133856	-0.76177175	1.4238859	-0.090438872	-0.7764742	1.081532	-0.30115472	-0.68011199	1.0497764	0.16178567	-0.69347335	0.8563579	-0.34299633	-0.47002242	0.91789839	0.17582763
135	0.536	-0.22767215	0.097790937	-0.17593574	-0.73000689	0.038986121	-0.034444847	-0.35983707	0.078597617	-0.21142273	-0.86692516	0.053406993	0.0076623621	-0.36008727	0.10315373	-0.12914246	-0.85405829	0.081773401	-0.077681936	-0.41092408	0.027623287	-0.1732425	-0.92231234	0.029642725	-0.038079169	-0.45158327	0.4604717	-0.22217518	-0.75664977	0.44247359	0.057473418	-0.44387346	0.43266816	-0.10287391	-0.74891465	0.44628869	-0.073376697	-0.59720999	0.81582079	-0.26725542	-0.68838635	0.85476395	0.10855162	-0.56408865	0.93111038	-0.19494593	-0.60090723	0.9399794	0.047967474	-0.78193343	0.94060938	-0.10545078	-0.65655047	1.399406	-0.24401979	-0.68698195	1.3986016	0.080123527	-0.75663276	1.4226323	-0.090536554	-0.77286302	1.0807427	-0.30151331	-0.67391019	1.0481549	0.16187491	-0.69029535	0.85543608	-0.34352709	-0.46214476	0.91869574	0.17509278
136	0.54	-0.21494209	0.10109749	-0.17310174	-0.73000434	0.038966583	-0.034354684	-0.34605551	0.079392906	-0.21138046	-0.86691467	0.053471839	0.0075584801	-0.3489018	0.10352081	-0.12946108	-0.8539405	0.081682473	-0.077818778	-0.39686126	0.027155211	-0.17478078	-0.92234047	0.029741124	-0.038205486	-0.44531977	0.45909297	-0.22221398	-0.75392915	0.44203494	0.057631256	-0.43988944	0.4304497	-0.10289362	-0.74572553	0.44557807	-0.073554515	-0.59097484	0.81447228	-0.26708761	-0.68482853	0.85388243	0.10830968	-0.55798814	0.92988746	-0.19454001	-0.5966166	0.93878851	0.048163655	-0.77520766	0.93730109	-0.11031608	-0.65164584	1.3980454	-0.24416891	-0.68168329	1.3972295	0.080091912	-0.75147725	1.421364	-0.090628971	-0.76937907	1.07989	-0.30195892	-0.66772561	1.0464981	0.16193944	-0.68705882	0.85449752	-0.34403104	-0.4543291	0.91946058	0.1743136
137	0.544	-0.20282543	0.10423333	-0.17033244	-0.73002284	0.038942059	-0.034284017	-0.33280157	0.080268372	-0.21134873	-0.86687834	0.053534907	0.0074593813	-0.33815697	0.1038478	-0.12975246	-0.85380237	0.081600697	-0.077965364	-0.38332719	0.026838795	-0.17615295	-0.92236068	0.029870013	-0.038346654	-0.43896437	0.4578141	-0.2222443	-0.75191104	0.44165672	0.057566147	-0.43588528	0.42820504	-0.10293736	-0.74248446	0.44487145	-0.073797575	-0.58474691	0.81306869	-0.26691676	-0.68128579	0.85296538	0.1081022	-0.55192002	0.92862128	-0.19409997	-0.59232278	0.93758211	0.048383517	-0.76951497	0.93469591	-0.11411177	-0.64662305	1.3966859	-0.24431069	-0.67636549	1.3958391	0.080041302	-0.74630478	1.420095	-0.090710558	-0.76592474	1.0789609	-0.30234688	-0.66155669	1.0448134	0.16197667	-0.68375813	0.85354762	-0.34451349	-0.44657733	0.92019116	0.1734972
138	0.548	-0.1913112	0.10711997	-0.16766666	-0.73004266	0.038910832	-0.034225727	-0.32009675	0.081188759	-0.21130876	-0.86681336	0.053599553	0.0073621106	-0.32761727	0.10420335	-0.12989118	-0.85363453	0.081528975	-0.078127398	-0.37037344	0.026644809	-0.17743736	-0.9223771	0.030049145	-0.038587282	-0.43252169	0.45664386	-0.22226672	-0.74992694	0.44099185	0.056876616	-0.43182654	0.42596194	-0.10300992	-0.7392838	0.44414809	-0.074137792	-0.57845236	0.81162487	-0.26673351	-0.67771053	0.85200593	0.10787097	-0.54587583	0.92731935	-0.19363617	-0.58801796	0.93636767	0.048639083	-0.76478466	0.93307655	-0.11655055	-0.64139272	1.3953283	-0.24442404	-0.67104494	1.3944322	0.079980764	-0.74113438	1.4188301	-0.090835336	-0.76239906	1.0779869	-0.30266703	-0.65540064	1.0431081	0.16198141	-0.68039495	0.852592	-0.34498911	-0.43889722	0.92088617	0.17265231
